<?xml version="1.0" encoding="UTF-8" standalone="no"?>
<svg width="200px" height="200px" viewBox="0 0 200 200" version="1.1" xmlns="http://www.w3.org/2000/svg" xmlns:xlink="http://www.w3.org/1999/xlink">
    <title>Image Placeholder</title>
    <defs></defs>
    <g id="Page-1" stroke="none" stroke-width="1" fill="none" fill-rule="evenodd">
        <rect id="Rectangle" fill="#E8E8E8" x="0" y="0" width="200" height="200"></rect>
        <g id="Group" transform="translate(50.000000, 50.000000)" fill="#AAAAAA">
            <path d="M0,0 L100,0 L100,100 L0,100 L0,0 Z M10,10 L10,90 L90,90 L90,10 L10,10 Z" id="Rectangle-path"></path>
            <path d="M35,40 C38.3137085,40 41,37.3137085 41,34 C41,30.6862915 38.3137085,28 35,28 C31.6862915,28 29,30.6862915 29,34 C29,37.3137085 31.6862915,40 35,40 Z" id="Oval"></path>
            <path d="M90,90 L90,70 L70,50 L50,70 L30,50 L10,70 L10,90 L90,90 Z" id="Path"></path>
        </g>
        <text id="No-Image" font-family="Arial, sans-serif" font-size="16" font-weight="normal" fill="#888888">
            <tspan x="60" y="170">No Image</tspan>
        </text>
    </g>
</svg>
